HIERARCHY
ROOT Hips
{
	OFFSET	0.00	0.00	0.00
	CHANNELS 6 Xposition Yposition Zposition Zrotation Xrotation Yrotation
	JOINT Chest
	{
		OFFSET	 0.00	 5.21	 0.00
		CHANNELS 3 Zrotation Xrotation Yrotation
		JOINT Neck
		{
			OFFSET	 0.00	 18.65	 0.00
			CHANNELS 3 Zrotation Xrotation Yrotation
			JOINT Head
			{
				OFFSET	 0.00	 5.45	 0.00
				CHANNELS 3 Zrotation Xrotation Yrotation
				End Site 
				{
					OFFSET	 0.00	 3.87	 0.00
				}
			}
		}
		JOINT LeftCollar
		{
			OFFSET	 1.12	 16.23	 1.87
			CHANNELS 3 Zrotation Xrotation Yrotation
			JOINT LeftUpArm
			{
				OFFSET	 5.54	 0.00	 0.00
				CHANNELS 3 Zrotation Xrotation Yrotation
				JOINT LeftLowArm
				{
					OFFSET	 0.00	-11.96	 0.00
					CHANNELS 3 Zrotation Xrotation Yrotation
					JOINT LeftHand
					{
						OFFSET	 0.00	-9.93	 0.00
						CHANNELS 3 Zrotation Xrotation Yrotation
						End Site 
						{
							OFFSET	 0.00	-7.00	 0.00
						}
					}
				}
			}
		}
		JOINT RightCollar
		{
			OFFSET	-1.12	 16.23	 1.87
			CHANNELS 3 Zrotation Xrotation Yrotation
			JOINT RightUpArm
			{
				OFFSET	-6.07	 0.00	 0.00
				CHANNELS 3 Zrotation Xrotation Yrotation
				JOINT RightLowArm
				{
					OFFSET	 0.00	-11.82	 0.00
					CHANNELS 3 Zrotation Xrotation Yrotation
					JOINT RightHand
					{
						OFFSET	 0.00	-10.65	 0.00
						CHANNELS 3 Zrotation Xrotation Yrotation
						End Site 
						{
							OFFSET	 0.00	-7.00	 0.00
						}
					}
				}
			}
		}
	}
	JOINT LeftUpLeg
	{
		OFFSET	 3.91	 0.00	 0.00
		CHANNELS 3 Zrotation Xrotation Yrotation
		JOINT LeftLowLeg
		{
			OFFSET	 0.00	-18.34	 0.00
			CHANNELS 3 Zrotation Xrotation Yrotation
			JOINT LeftFoot
			{
				OFFSET	 0.00	-17.37	 0.00
				CHANNELS 3 Zrotation Xrotation Yrotation
				End Site 
				{
					OFFSET	 0.00	-3.46	 0.00
				}
			}
		}
	}
	JOINT RightUpLeg
	{
		OFFSET	-3.91	 0.00	 0.00
		CHANNELS 3 Zrotation Xrotation Yrotation
		JOINT RightLowLeg
		{
			OFFSET	 0.00	-17.63	 0.00
			CHANNELS 3 Zrotation Xrotation Yrotation
			JOINT RightFoot
			{
				OFFSET	 0.00	-17.14	 0.00
				CHANNELS 3 Zrotation Xrotation Yrotation
				End Site 
				{
					OFFSET	 0.00	-3.75	 0.00
				}
			}
		}
	}
}
MOTION
Frames:    10
Frame Time: 0.033333
-5.61	 37.37	-68.55	-5.28	-1.90	 4.16	-6.55	 59.12	-12.24	 9.57	-12.07	 0.00	-8.93	-40.77	-2.27	 12.44	 0.00	-3.72	 43.46	-76.82	 50.23	-107.82	-33.00	-95.15	 0.70	 1.27	-0.02	-4.22	 0.00	 11.57	-48.95	 22.46	 19.30	 76.98	-40.31	 84.52	-1.47	 1.75	 0.04	 8.66	-17.74	 2.66	-1.38	 49.73	 8.63	 0.00	-32.44	 0.00	-11.32	-28.89	-5.53	 26.07	 55.14	-28.64	 0.00	-16.61	 0.00	
-5.87	 37.33	-67.19	-4.97	-0.01	 6.28	-3.74	 57.19	-13.51	 9.35	-12.40	 0.00	-9.07	-40.74	-2.48	 11.89	 0.00	-6.42	 41.96	-68.06	 47.79	-118.38	-31.24	-100.71	 0.67	 1.72	-0.02	-2.39	 0.00	 12.01	-51.26	 21.06	 19.03	 78.63	-40.01	 85.47	-1.47	 1.67	 0.04	 8.63	-17.57	 2.62	-0.51	 49.48	 6.72	 0.00	-34.22	 0.00	-13.08	-32.12	-7.04	 18.24	 43.07	-22.95	 0.00	-16.97	 0.00	
-6.09	 37.19	-65.78	-4.31	 1.12	 7.75	-1.94	 56.29	-13.31	 8.84	-12.86	 0.00	-9.34	-40.69	-2.90	 10.81	 0.00	-9.21	 41.60	-58.20	 45.52	-125.13	-29.86	-104.20	 0.65	 1.95	-0.02	 0.13	 0.00	 11.76	-53.35	 18.27	 16.50	 78.81	-38.26	 85.43	-1.50	 1.71	 0.04	 8.27	-16.49	 2.36	 0.09	 49.40	 5.74	 0.00	-36.14	 0.00	-14.44	-33.46	-8.08	 11.49	 29.87	-19.64	 0.00	-17.62	 0.00	
-6.31	 36.87	-64.29	-2.82	 1.38	 9.00	-1.30	 56.47	-12.15	 7.96	-13.40	 0.00	-9.77	-40.60	-3.56	 9.07	 0.00	-11.66	 42.22	-47.94	 43.09	-126.87	-29.21	-105.03	 0.65	 1.98	-0.02	 3.41	 0.00	 10.78	-55.09	 14.46	 11.70	 75.86	-34.85	 83.56	-1.53	 1.95	 0.05	 7.49	-14.44	 1.88	-0.05	 49.69	 5.42	 0.00	-37.99	 0.00	-16.13	-33.24	-9.01	 6.80	 17.80	-19.32	 0.00	-18.99	 0.00	
-6.57	 36.38	-62.70	-0.78	 1.33	 10.29	-1.07	 57.02	-10.66	 6.68	-13.93	 0.00	-10.39	-40.46	-4.51	 6.92	 0.00	-13.51	 43.08	-38.29	 39.89	-122.65	-29.98	-103.02	 0.67	 1.74	-0.02	 6.69	 0.00	 9.40	-55.65	 10.25	 5.26	 68.33	-30.41	 79.40	-1.57	 2.47	 0.07	 6.48	-12.00	 1.35	-0.35	 50.45	 5.20	 0.00	-39.80	 0.00	-18.38	-32.60	-10.15	 4.68	 10.00	-21.00	 0.00	-20.43	 0.00	
-6.82	 35.86	-60.99	 0.90	 0.85	 11.72	 0.84	 57.99	-10.03	 5.10	-14.42	 0.00	-11.13	-40.28	-5.66	 4.77	 0.00	-14.75	 43.31	-30.48	 35.84	-112.25	-32.70	-98.25	 0.71	 1.18	-0.01	 8.89	 0.00	 8.13	-54.35	 6.17	-1.20	 58.02	-28.11	 72.60	-1.67	 3.13	 0.09	 5.72	-9.05	 0.90	 0.64	 51.32	 4.27	 0.00	-41.77	 0.00	-20.21	-31.74	-10.96	 4.48	 7.87	-22.47	 0.00	-20.75	 0.00	
-7.09	 35.36	-59.15	 1.97	-0.02	 13.37	 5.33	 59.11	-11.26	 3.44	-14.78	 0.00	-11.90	-40.09	-6.86	 2.66	 0.00	-15.27	 42.51	-25.14	 31.60	-94.91	-36.16	-89.02	 0.74	 0.24	 0.00	 9.83	 0.00	 7.20	-51.32	 2.49	-6.17	 46.15	-30.31	 59.96	-1.82	 3.72	 0.12	 5.52	-5.56	 0.54	 3.09	 51.85	 2.44	 0.00	-43.84	 0.00	-21.38	-30.95	-11.38	 5.15	 10.82	-22.09	 0.00	-18.65	 0.00	
-7.41	 34.89	-57.23	 2.34	-0.56	 14.80	 11.45	 59.40	-13.77	 1.90	-14.95	 0.00	-12.62	-39.90	-7.98	 0.41	 0.00	-15.69	 41.07	-21.34	 27.70	-71.98	-37.82	-74.74	 0.73	-0.92	 0.01	 9.81	 0.00	 6.61	-47.44	-1.28	-10.05	 34.25	-35.44	 41.93	-1.92	 4.00	 0.13	 6.16	-2.33	 0.25	 5.68	 51.97	 0.73	 0.00	-45.66	 0.00	-22.24	-31.61	-12.09	 6.30	 17.13	-20.15	 0.00	-13.14	 0.00	
-7.78	 34.53	-55.30	 1.87	-0.77	 15.49	 18.07	 59.00	-17.08	 0.54	-14.93	 0.00	-13.26	-39.72	-8.97	-2.09	 0.00	-16.44	 40.13	-17.07	 23.93	-49.43	-36.51	-58.51	 0.66	-1.88	 0.02	 8.70	 0.00	 6.71	-44.42	-6.15	-14.44	 26.72	-39.91	 29.23	-1.87	 3.87	 0.13	 7.70	 0.52	-0.07	 7.35	 51.87	 0.36	 0.00	-46.60	 0.00	-22.70	-33.79	-13.10	 8.12	 25.01	-19.09	 0.00	-6.66	 0.00	
-8.13	 34.31	-53.38	 0.92	-1.04	 15.34	 24.45	 58.58	-21.20	-0.69	-14.78	 0.00	-13.83	-39.56	-9.87	-4.74	 0.00	-17.47	 40.38	-11.04	 19.50	-33.25	-33.45	-44.78	 0.57	-2.37	 0.02	 6.69	 0.00	 7.21	-43.45	-12.66	-20.40	 27.77	-41.82	 29.75	-1.77	 3.56	 0.11	 9.57	 3.21	-0.54	 8.14	 51.97	 1.32	 0.00	-45.77	 0.00	-22.36	-36.17	-13.64	 10.26	 33.13	-19.68	 0.00	-3.24	 0.00	
